<svg id="visual" viewBox="0 0 900 600" width="900" height="600" xmlns="http://www.w3.org/2000/svg" xmlns:xlink="http://www.w3.org/1999/xlink" version="1.1"><path d="M0 139L13.7 141C27.3 143 54.7 147 82 140C109.3 133 136.7 115 163.8 112C191 109 218 121 245.2 121C272.3 121 299.7 109 327 100C354.3 91 381.7 85 409 82C436.3 79 463.7 79 491 77C518.3 75 545.7 71 573 81C600.3 91 627.7 115 654.8 126C682 137 709 135 736.2 132C763.3 129 790.7 125 818 128C845.3 131 872.7 141 886.3 146L900 151L900 0L886.3 0C872.7 0 845.3 0 818 0C790.7 0 763.3 0 736.2 0C709 0 682 0 654.8 0C627.7 0 600.3 0 573 0C545.7 0 518.3 0 491 0C463.7 0 436.3 0 409 0C381.7 0 354.3 0 327 0C299.7 0 272.3 0 245.2 0C218 0 191 0 163.8 0C136.7 0 109.3 0 82 0C54.7 0 27.3 0 13.7 0L0 0Z" fill="#004cbb"></path><path d="M0 223L13.7 220C27.3 217 54.7 211 82 200C109.3 189 136.7 173 163.8 171C191 169 218 181 245.2 184C272.3 187 299.7 181 327 180C354.3 179 381.7 183 409 184C436.3 185 463.7 183 491 178C518.3 173 545.7 165 573 165C600.3 165 627.7 173 654.8 187C682 201 709 221 736.2 228C763.3 235 790.7 229 818 231C845.3 233 872.7 243 886.3 248L900 253L900 149L886.3 144C872.7 139 845.3 129 818 126C790.7 123 763.3 127 736.2 130C709 133 682 135 654.8 124C627.7 113 600.3 89 573 79C545.7 69 518.3 73 491 75C463.7 77 436.3 77 409 80C381.7 83 354.3 89 327 98C299.7 107 272.3 119 245.2 119C218 119 191 107 163.8 110C136.7 113 109.3 131 82 138C54.7 145 27.3 141 13.7 139L0 137Z" fill="#0059dd"></path><path d="M0 385L13.7 384C27.3 383 54.7 381 82 360C109.3 339 136.7 299 163.8 305C191 311 218 363 245.2 371C272.3 379 299.7 343 327 331C354.3 319 381.7 331 409 326C436.3 321 463.7 299 491 290C518.3 281 545.7 285 573 310C600.3 335 627.7 381 654.8 401C682 421 709 415 736.2 396C763.3 377 790.7 345 818 332C845.3 319 872.7 325 886.3 328L900 331L900 251L886.3 246C872.7 241 845.3 231 818 229C790.7 227 763.3 233 736.2 226C709 219 682 199 654.8 185C627.7 171 600.3 163 573 163C545.7 163 518.3 171 491 176C463.7 181 436.3 183 409 182C381.7 181 354.3 177 327 178C299.7 179 272.3 185 245.2 182C218 179 191 167 163.8 169C136.7 171 109.3 187 82 198C54.7 209 27.3 215 13.7 218L0 221Z" fill="#0066ff"></path><path d="M0 523L13.7 530C27.3 537 54.7 551 82 547C109.3 543 136.7 521 163.8 511C191 501 218 503 245.2 505C272.3 507 299.7 509 327 510C354.3 511 381.7 511 409 518C436.3 525 463.7 539 491 545C518.3 551 545.7 549 573 548C600.3 547 627.7 547 654.8 546C682 545 709 543 736.2 536C763.3 529 790.7 517 818 514C845.3 511 872.7 517 886.3 520L900 523L900 329L886.3 326C872.7 323 845.3 317 818 330C790.7 343 763.3 375 736.2 394C709 413 682 419 654.8 399C627.7 379 600.3 333 573 308C545.7 283 518.3 279 491 288C463.7 297 436.3 319 409 324C381.7 329 354.3 317 327 329C299.7 341 272.3 377 245.2 369C218 361 191 309 163.8 303C136.7 297 109.3 337 82 358C54.7 379 27.3 381 13.7 382L0 383Z" fill="#3c80ff"></path><path d="M0 601L13.7 601C27.3 601 54.7 601 82 601C109.3 601 136.7 601 163.8 601C191 601 218 601 245.2 601C272.3 601 299.7 601 327 601C354.3 601 381.7 601 409 601C436.3 601 463.7 601 491 601C518.3 601 545.7 601 573 601C600.3 601 627.7 601 654.8 601C682 601 709 601 736.2 601C763.3 601 790.7 601 818 601C845.3 601 872.7 601 886.3 601L900 601L900 521L886.3 518C872.7 515 845.3 509 818 512C790.7 515 763.3 527 736.2 534C709 541 682 543 654.8 544C627.7 545 600.3 545 573 546C545.7 547 518.3 549 491 543C463.7 537 436.3 523 409 516C381.7 509 354.3 509 327 508C299.7 507 272.3 505 245.2 503C218 501 191 499 163.8 509C136.7 519 109.3 541 82 545C54.7 549 27.3 535 13.7 528L0 521Z" fill="#6198ff"></path></svg>